<svg viewBox="0 0 300 700" xmlns="http://www.w3.org/2000/svg">
  <style>
    .organ { stroke: black; stroke-width: 1; }
    .brain { fill: pink; }
    .heart { fill: red; }
    .lungs { fill: lightcoral; }
    .liver { fill: brown; }
    .stomach { fill: orange; }
    .intestine-small { fill: peachpuff; }
    .intestine-large { fill: peru; }
    .outline { fill: none; stroke: black; stroke-width: 2; }
  </style>

  <!-- Body Outline -->
  <rect x="100" y="50" width="100" height="600" rx="50" class="outline" />
  
  <!-- Brain -->
  <ellipse cx="150" cy="80" rx="30" ry="20" class="organ brain" />
  
  <!-- Smiley Face -->
  <circle cx="135" cy="110" r="2" fill="black" />
  <circle cx="165" cy="110" r="2" fill="black" />
  <path d="M140 120 Q150 130 160 120" stroke="black" stroke-width="2" fill="none" />
  
  <!-- Arms -->
  <!-- Left arm -->
  <line x1="100" y1="200" x2="80" y2="220" stroke="black" stroke-width="2" />
  <!-- Left hand with loop fingers (flower petals) -->
  <ellipse cx="78" cy="218" rx="3" ry="5" class="outline" transform="rotate(-30 78 218)" />
  <ellipse cx="76" cy="222" rx="3" ry="5" class="outline" transform="rotate(0 76 222)" />
  <ellipse cx="78" cy="226" rx="3" ry="5" class="outline" transform="rotate(30 78 226)" />
  
  <!-- Right arm -->
  <line x1="200" y1="200" x2="220" y2="220" stroke="black" stroke-width="2" />
  <!-- Right hand with loop fingers (flower petals) -->
  <ellipse cx="222" cy="218" rx="3" ry="5" class="outline" transform="rotate(30 222 218)" />
  <ellipse cx="224" cy="222" rx="3" ry="5" class="outline" transform="rotate(0 224 222)" />
  <ellipse cx="222" cy="226" rx="3" ry="5" class="outline" transform="rotate(-30 222 226)" />
  
  <!-- Legs -->
  <!-- Left leg -->
  <line x1="130" y1="650" x2="130" y2="680" stroke="black" stroke-width="2" />
  <!-- Left foot -->
  <line x1="130" y1="680" x2="120" y2="680" stroke="black" stroke-width="2" />
  
  <!-- Right leg -->
  <line x1="170" y1="650" x2="170" y2="680" stroke="black" stroke-width="2" />
  <!-- Right foot -->
  <line x1="170" y1="680" x2="180" y2="680" stroke="black" stroke-width="2" />
  
  <!-- Lungs -->
  <ellipse cx="130" cy="180" rx="20" ry="40" class="organ lungs" />
  <ellipse cx="170" cy="180" rx="20" ry="40" class="organ lungs" />
  
  <!-- Heart -->
  <path d="M145 200 Q150 190 155 200 Q160 210 150 220 Q140 210 145 200 Z" class="organ heart" />
  
  <!-- Liver -->
  <ellipse cx="140" cy="260" rx="40" ry="20" class="organ liver" />
  
  <!-- Stomach -->
  <ellipse cx="170" cy="290" rx="20" ry="30" class="organ stomach" />
  
  <!-- Small Intestine -->
  <path d="M130 330 Q140 340 130 350 Q140 360 130 370 Q140 380 130 390" class="organ intestine-small" />
  
  <!-- Large Intestine -->
  <rect x="110" y="320" width="80" height="100" rx="15" class="organ intestine-large" />
</svg>
