<svg width="32" height="32" viewBox="0 0 32 32" xmlns="http://www.w3.org/2000/svg">
  <defs>
    <linearGradient id="toxicGradient" x1="0%" y1="0%" x2="100%" y2="100%">
      <stop offset="0%" style="stop-color:#8E4EC6;stop-opacity:1" />
      <stop offset="50%" style="stop-color:#9d4edd;stop-opacity:1" />
      <stop offset="100%" style="stop-color:#7b2cbf;stop-opacity:1" />
    </linearGradient>
    <linearGradient id="innerGlow" x1="0%" y1="0%" x2="100%" y2="100%">
      <stop offset="0%" style="stop-color:#ffffff;stop-opacity:0.3" />
      <stop offset="100%" style="stop-color:#ffffff;stop-opacity:0.1" />
    </linearGradient>
  </defs>
  
  <!-- Background circle -->
  <circle cx="16" cy="16" r="15" fill="url(#toxicGradient)" stroke="#5a189a" stroke-width="1"/>
  
  <!-- Inner glow -->
  <circle cx="16" cy="16" r="13" fill="url(#innerGlow)"/>
  
  <!-- Molecular structure - representing toxin detection -->
  <!-- Central molecule -->
  <circle cx="16" cy="16" r="2.5" fill="#ffffff" opacity="0.9"/>
  
  <!-- Surrounding atoms -->
  <circle cx="10" cy="10" r="1.5" fill="#ffffff" opacity="0.8"/>
  <circle cx="22" cy="10" r="1.5" fill="#ffffff" opacity="0.8"/>
  <circle cx="10" cy="22" r="1.5" fill="#ffffff" opacity="0.8"/>
  <circle cx="22" cy="22" r="1.5" fill="#ffffff" opacity="0.8"/>
  
  <!-- Bonds -->
  <line x1="16" y1="16" x2="10" y2="10" stroke="#ffffff" stroke-width="1.5" opacity="0.7"/>
  <line x1="16" y1="16" x2="22" y2="10" stroke="#ffffff" stroke-width="1.5" opacity="0.7"/>
  <line x1="16" y1="16" x2="10" y2="22" stroke="#ffffff" stroke-width="1.5" opacity="0.7"/>
  <line x1="16" y1="16" x2="22" y2="22" stroke="#ffffff" stroke-width="1.5" opacity="0.7"/>
  
  <!-- Detection waves/signals -->
  <path d="M 6 16 Q 8 14, 10 16 Q 12 18, 14 16" stroke="#ffffff" stroke-width="1" fill="none" opacity="0.6"/>
  <path d="M 18 16 Q 20 14, 22 16 Q 24 18, 26 16" stroke="#ffffff" stroke-width="1" fill="none" opacity="0.6"/>
  
  <!-- Small highlight dot -->
  <circle cx="20" cy="12" r="1" fill="#ffffff" opacity="0.9"/>
</svg>
